HIERARCHY
ROOT Hips
{
  OFFSET 44.0746 95.0716 20.5353
  CHANNELS 6 Xposition Yposition Zposition Zrotation Xrotation Yrotation
  JOINT ToSpine
  {
    OFFSET -2.69724 7.43032 -0.144315
    CHANNELS 3 Zrotation Xrotation Yrotation
    JOINT Spine
    {
      OFFSET -0.0310711 10.7595 1.96963
      CHANNELS 3 Zrotation Xrotation Yrotation
      JOINT Spine1
      {
        OFFSET 13.1342 3.43533 0.764692
        CHANNELS 3 Zrotation Xrotation Yrotation
        JOINT Neck
        {
          OFFSET 29.8703 7.82586 -0.130764
          CHANNELS 3 Zrotation Xrotation Yrotation
          JOINT Head
          {
            OFFSET 9.52751 0.295786 -0.907742
            CHANNELS 3 Zrotation Xrotation Yrotation
            End Site
            {
              OFFSET 16.4037 0.713936 2.7358
            }
          }
        }
        JOINT LeftShoulder
        {
          OFFSET 27.5574 4.95586 2.47156
          CHANNELS 3 Zrotation Xrotation Yrotation
          JOINT LeftArm
          {
            OFFSET 1.20734 -0.998971 20.1238
            CHANNELS 3 Zrotation Xrotation Yrotation
            JOINT LeftForeArm
            {
              OFFSET 26.8049 -0.0536703 -0.155908
              CHANNELS 3 Zrotation Xrotation Yrotation
              JOINT LeftHand
              {
                OFFSET 26.6817 0 0.320147
                CHANNELS 3 Zrotation Xrotation Yrotation
                End Site
                {
                  OFFSET 18.6119 0 0.382219
                }
              }
            }
          }
        }
        JOINT RightShoulder
        {
          OFFSET 27.5927 4.71444 -2.65209
          CHANNELS 3 Zrotation Xrotation Yrotation
          JOINT RightArm
          {
            OFFSET 2.83739 -1.17114 -18.7564
            CHANNELS 3 Zrotation Xrotation Yrotation
            JOINT RightForeArm
            {
              OFFSET 28.839 -0.0548439 1.22491
              CHANNELS 3 Zrotation Xrotation Yrotation
              JOINT RightHand
              {
                OFFSET 26.5114 0 -0.101894
                CHANNELS 3 Zrotation Xrotation Yrotation
                End Site
                {
                  OFFSET 18.2168 0 0
                }
              }
            }
          }
        }
      }
    }
  }
  JOINT LeftUpLeg
  {
    OFFSET -4.76168 -1.9167 -10.2353
    CHANNELS 3 Zrotation Xrotation Yrotation
    JOINT LeftLeg
    {
      OFFSET 2.55951 -42.0585 -8.02213
      CHANNELS 3 Zrotation Xrotation Yrotation
      JOINT LeftFoot
      {
        OFFSET 3.16357 -42.5282 -3.95426
        CHANNELS 3 Zrotation Xrotation Yrotation
        JOINT LeftToeBase
        {
          OFFSET 0.346054 -6.02161 12.8035
          CHANNELS 3 Zrotation Xrotation Yrotation
          End Site
          {
            OFFSET 0.134235 -1.35082 5.13018
          }
        }
      }
    }
  }
  JOINT RightUpLeg
  {
    OFFSET -4.94151 -1.41743 10.6446
    CHANNELS 3 Zrotation Xrotation Yrotation
    JOINT RightLeg
    {
      OFFSET -2.56294 -42.0364 -7.94377
      CHANNELS 3 Zrotation Xrotation Yrotation
      JOINT RightFoot
      {
        OFFSET -3.0952 -42.555 -4.02241
        CHANNELS 3 Zrotation Xrotation Yrotation
        JOINT RightToeBase
        {
          OFFSET -0.0828122 -6.13587 12.8035
          CHANNELS 3 Zrotation Xrotation Yrotation
          End Site
          {
            OFFSET -0.131328 -1.35082 5.13018
          }
        }
      }
    }
  }
}
MOTION
Frames:	8
Frame Time:	0.0333333
48.2932 97.8486 21.8503 65.2003 -30.8279 -14.4944 -70.1915 0 88.8779 59.9435 68.8526 28.3486 7.33659 20.8699 0.601977 -157.176 23.5361 175.715 -160.468 63.0214 -173.361 -0.0803713 -14.7777 -35.2811 -78.6803 45.779 -79.6147 9.231 15.365 -31.1208 0.420957 0.000575329 0.35866 -1.6269 5.22502 45.7917 -73.3351 -35.5133 87.1261 6.3674 -11.905 28.5758 0.58676 0.000331041 0.0646653 -51.944 1.22854 98.6732 -1.25417 20.3416 -9.80416 6.24432 -5.4516 -1.02492 1.36468 -2.65135 -0.933295 -53.1351 -2.02539 81.2828 1.34305 17.5395 4.73157 -8.35819 -5.42062 1.25795 0.0508214 -3.35927 2.54 
48.3139 97.8624 21.8751 65.2865 -30.8494 -14.3908 -70.1915 0 88.8779 59.9027 68.6847 28.6759 7.63862 20.8387 0.149759 -157.112 23.2938 175.706 -160.539 62.7799 -173.304 -0.0174638 -14.5742 -34.9697 -79.0702 46.0133 -79.3772 9.51876 15.7239 -31.3482 0.420957 0.000575329 0.35866 -1.64238 5.27574 45.7729 -73.4255 -35.6637 87.1636 6.64479 -12.4237 28.59 0.58676 0.000331041 0.0646653 -52.0156 1.30556 98.7188 -1.25527 20.4416 -10.0799 5.95258 -5.28117 -0.996797 1.46791 -3.04808 -0.46461 -53.3298 -1.99055 81.2431 1.38712 17.3789 4.70202 -8.21421 -5.53213 1.24665 0.0110948 -2.84379 2.29257 
48.3261 97.8579 21.8745 65.3061 -30.9589 -14.4748 -70.1915 0 88.8779 59.7727 68.772 28.6371 7.51885 20.867 0.421937 -156.907 23.3381 176.03 -160.686 62.8405 -172.899 -0.0540491 -14.6815 -35.217 -79.0752 46.0173 -79.264 9.35429 15.4093 -31.3829 0.420957 0.000575329 0.35866 -1.65188 5.33967 45.5756 -73.0571 -35.7169 87.1049 6.58663 -12.1722 28.8605 0.58676 0.000331041 0.0646653 -52.0071 1.26968 98.7348 -1.26258 20.6084 -9.84032 5.48688 -5.52745 -0.965651 1.4195 -2.84166 -0.745269 -53.3247 -1.99303 81.275 1.32702 17.4482 5.16928 -8.20015 -5.3962 1.24467 0.0943164 -3.04 1.87865 
48.3239 97.8532 21.8877 65.344 -30.98 -14.4259 -70.1915 0 88.8779 59.6814 68.7536 28.8505 7.67239 20.9177 0.227438 -156.79 23.3538 175.936 -160.708 62.8661 -172.666 -0.0813608 -14.7834 -35.2696 -79.1476 45.9269 -79.0446 9.39809 15.3388 -31.6137 0.420957 0.000575329 0.35866 -1.63554 5.29394 45.5473 -72.6114 -35.7675 87.3776 6.33789 -11.7124 28.8424 0.58676 0.000331041 0.0646653 -52.0502 1.28359 98.7058 -1.20848 20.5724 -9.63731 5.85736 -5.60921 -0.997914 1.33429 -2.60323 -0.885314 -53.3066 -1.97357 81.2859 1.33096 17.5421 4.6119 -8.43424 -5.40813 1.26415 -0.0235187 -3.39157 3.11807 
48.3213 97.8559 21.8995 65.3687 -31.0779 -14.4536 -70.1915 0 88.8779 59.5396 68.6582 28.9318 7.76835 20.8389 0.250437 -156.772 23.2615 176.016 -160.748 62.7721 -172.681 -0.0269754 -14.5894 -35.1096 -79.1011 46.0674 -79.0518 9.70108 15.774 -31.7546 0.420957 0.000575329 0.35866 -1.66377 5.38612 45.5208 -72.8241 -35.8717 87.3423 6.56102 -12.2275 28.6534 0.58676 0.000331041 0.0646653 -52.1958 1.28747 98.7495 -1.2527 20.4591 -10.0394 5.68367 -5.30687 -0.975173 1.56655 -3.35567 -0.199512 -53.3364 -1.95405 81.2944 1.2875 17.5973 5.02576 -8.34302 -5.45975 1.25684 0.0711704 -3.11184 2.13121 
48.3191 97.8639 21.9162 65.4066 -31.1136 -14.4415 -70.1915 0 88.8779 59.4694 68.6938 28.9634 7.73847 20.858 0.353134 -156.61 23.3243 176.227 -160.857 62.8412 -172.492 -0.0695795 -14.7395 -35.2476 -78.8005 45.9924 -79.2391 9.50597 15.5783 -31.542 0.420957 0.000575329 0.35866 -1.66076 5.387 45.4628 -72.7895 -35.9186 87.1562 6.67184 -12.3651 28.7914 0.58676 0.000331041 0.0646653 -52.1852 1.29419 98.7442 -1.2212 20.5512 -10.0665 5.52061 -5.35587 -0.963136 1.47362 -3.21374 -0.0372695 -53.32 -1.87097 81.3564 1.21834 17.6971 5.01831 -8.3332 -5.45537 1.25598 0.0857619 -3.21625 2.13063 
48.3076 97.8458 21.9358 65.3965 -31.1756 -14.3984 -70.1915 0 88.8779 59.4369 68.7315 29.0165 7.69902 20.8864 0.422383 -156.448 23.3632 176.124 -160.545 62.862 -172.666 -0.0874565 -14.7962 -35.3421 -78.4818 45.9269 -79.4182 9.19547 15.2324 -31.2493 0.420957 0.000575329 0.35866 -1.63029 5.29067 45.4717 -72.4804 -35.869 87.2622 6.5355 -12.1362 28.7347 0.58676 0.000331041 0.0646653 -52.1778 1.35412 98.7076 -1.12831 20.5635 -9.72916 5.76429 -5.68581 -0.992747 1.3519 -2.68962 -0.753842 -53.4161 -1.8103 81.3442 1.26656 17.5113 4.91936 -8.49305 -5.48032 1.26971 0.0285335 -3.22538 2.55451 
48.2984 97.8189 21.9571 65.3713 -31.3069 -14.4203 -70.1915 0 88.8779 59.198 68.5981 29.292 7.93258 20.8103 0.363653 -156.702 23.304 176.329 -160.748 62.8176 -172.492 -0.00107579 -14.4859 -35.1016 -78.3957 46.1064 -79.5929 9.32584 15.456 -31.2526 0.420957 0.000575329 0.35866 -1.62819 5.34817 45.1108 -72.3717 -36.2434 87.6334 6.48193 -12.1544 28.5 0.58676 0.000331041 0.0646653 -52.0631 1.48168 98.7837 -1.23925 20.9001 -9.80104 6.005 -5.62394 -1.01025 1.44522 -3.04948 -0.321078 -53.4169 -1.76525 81.352 1.3134 17.5123 4.82282 -9.02994 -5.26761 1.31362 0.033295 -3.71824 3.0688 
